<?xml version="1.0" encoding="UTF-8" standalone="no"?>
<svg
   width="146"
   height="139"
   viewBox="0 0 146 139"
   fill="none"
   version="1.1"
   id="svg38"
   sodipodi:docname="logo.svg"
   inkscape:version="1.1.1 (3bf5ae0d25, 2021-09-20)"
   xmlns:inkscape="http://www.inkscape.org/namespaces/inkscape"
   xmlns:sodipodi="http://sodipodi.sourceforge.net/DTD/sodipodi-0.dtd"
   xmlns="http://www.w3.org/2000/svg"
   xmlns:svg="http://www.w3.org/2000/svg">
  <defs
     id="defs42" />
  <sodipodi:namedview
     id="namedview40"
     pagecolor="#ffffff"
     bordercolor="#666666"
     borderopacity="1.0"
     inkscape:pageshadow="2"
     inkscape:pageopacity="0.0"
     inkscape:pagecheckerboard="0"
     showgrid="false"
     inkscape:zoom="2.56"
     inkscape:cx="89.257813"
     inkscape:cy="83.203125"
     inkscape:window-width="1440"
     inkscape:window-height="838"
     inkscape:window-x="-8"
     inkscape:window-y="-8"
     inkscape:window-maximized="1"
     inkscape:current-layer="svg38" />
  <path
     d="m 118,68.567096 c 0,30.063 -20.819,54.433004 -46.5,54.433004 -25.681,0 -46.5,-24.370004 -46.5,-54.433004 0,-30.063 20.819,-41.567 46.5,-41.567 25.681,0 46.5,11.504 46.5,41.567 z"
     fill="#f7ee1a"
     id="path4-8" />
  <path
     d="m 72.382,1.0000963 72.669,44.2249997 -34,7.775 H 72.382 40.051 L 0,45.225096 Z"
     fill="#ca9546"
     id="path6" />
  <line
     x1="72.330994"
     y1="1.3740883"
     x2="20.330994"
     y2="47.374088"
     stroke="#af742e"
     id="line8-7" />
  <line
     x1="72.445007"
     y1="2.2271004"
     x2="46.445007"
     y2="53.2271"
     stroke="#af742e"
     id="line10-8" />
  <line
     x1="70.498993"
     y1="0.97108841"
     x2="73.498993"
     y2="52.971088"
     stroke="#ca9546"
     id="line12-7" />
  <line
     x1="71.463013"
     y1="3.8111"
     x2="91.463013"
     y2="52.8111"
     stroke="#af742e"
     id="line14-5" />
  <line
     x1="73.338989"
     y1="3.6320992"
     x2="123.33899"
     y2="49.632099"
     stroke="#af742e"
     id="line16" />
  <path
     d="m 10.4,69.489096 11.581,-5.885 -0.693,12.971 z"
     fill="#f9b509"
     id="path18-5" />
  <path
     d="M 18.68,100.8961 25.295,89.716096 31.67,101.0341 Z"
     fill="#f9b509"
     id="path20-1" />
  <path
     d="m 35.253,124.8591 3.48,-12.515 9.099,9.271 z"
     fill="#f9b509"
     id="path22-5" />
  <path
     d="m 94.458,134.5141 -9.428,-8.937 12.454,-3.696 z"
     fill="#f9b509"
     id="path24-1" />
  <path
     d="m 65.479,136.5241 -5.627,-11.709 12.953,0.981 z"
     fill="#f9b509"
     id="path26-5" />
  <path
     d="m 100.985,116.4051 10.3,-7.916 1.706,12.878 z"
     fill="#f9b509"
     id="path28-5" />
  <path
     d="m 120.049,75.550096 1.801,-12.55 10.097,8.173 z"
     fill="#f9b509"
     id="path30-0" />
  <path
     d="m 111.864,98.587096 7.857,-10.214 4.96,11.551 z"
     fill="#f9b509"
     id="path32-6" />
  <path
     d="m 86.5,96.368096 c 0,0.829 -0.417,15.500004 -14.5,15.500004 -14.083,0 -15,-14.671004 -15,-15.500004 0,-0.828 0.917,0 15,0 14.083,0 14.5,-0.828 14.5,0 z"
     fill="#e05b5b"
     id="path34-1" />
  <path
     d="m 93,72.000096 c 0,6.075 -1.791,8.5 -4,8.5 -2.209,0 -4,-2.425 -4,-8.5 0,-6.075 1.791,-11 4,-11 2.209,0 4,4.925 4,11 z"
     fill="#242222"
     id="path36-0" />
  <path
     d="m 59,72.000096 c 0,6.075 -1.791,8.5 -4,8.5 -2.209,0 -4,-2.425 -4,-8.5 0,-6.075 1.791,-11 4,-11 2.209,0 4,4.925 4,11 z"
     fill="#242222"
     id="path38" />
</svg>
